<svg xmlns="http://www.w3.org/2000/svg" xmlns:xlink="http://www.w3.org/1999/xlink" width="500" zoomAndPan="magnify" viewBox="0 0 375 374.999991" height="500" preserveAspectRatio="xMidYMid meet" version="1.0"><defs><g/><clipPath id="6fe582281a"><path d="M 123.492188 131.046875 L 241.992188 131.046875 L 241.992188 249.546875 L 123.492188 249.546875 Z M 123.492188 131.046875 " clip-rule="nonzero"/></clipPath><clipPath id="cf88b002b7"><path d="M 133 66.023438 L 276.828125 66.023438 L 276.828125 182 L 133 182 Z M 133 66.023438 " clip-rule="nonzero"/></clipPath></defs><g clip-path="url(#6fe582281a)"><path fill="#ebb22f" d="M 182.726562 131.027344 C 215.433594 131.027344 241.941406 157.539062 241.941406 190.242188 C 241.941406 215.199219 226.5 236.550781 204.644531 245.265625 L 203.78125 226.605469 L 203.78125 226.570312 C 203.828125 222.878906 205.386719 219.972656 208.84375 218.511719 L 209.289062 218.332031 L 209.3125 218.324219 L 209.339844 218.3125 L 209.382812 218.296875 C 211.929688 217.265625 214 215.878906 215.414062 213.476562 C 217.175781 210.480469 217.519531 206.492188 217.519531 203.097656 C 217.519531 196.574219 215.59375 188.871094 212.28125 183.226562 C 209.925781 179.21875 206.210938 175.164062 201.195312 175.164062 C 196.179688 175.164062 192.464844 179.21875 190.109375 183.226562 C 186.792969 188.871094 184.871094 196.574219 184.871094 203.097656 C 184.871094 206.496094 185.210938 210.484375 186.976562 213.476562 C 188.40625 215.894531 190.5 217.285156 193.058594 218.316406 C 193.128906 218.34375 193.203125 218.375 193.273438 218.402344 L 193.292969 218.402344 L 193.515625 218.5 C 196.984375 219.957031 198.5625 222.832031 198.609375 226.570312 L 198.609375 226.605469 L 197.636719 247.566406 C 192.871094 248.800781 187.878906 249.460938 182.726562 249.460938 C 177.394531 249.460938 172.226562 248.75 167.3125 247.429688 L 166.402344 227.808594 L 166.402344 227.765625 C 166.449219 223.980469 168.066406 221 171.605469 219.5 L 172.058594 219.324219 L 172.074219 219.320312 L 172.089844 219.3125 L 172.140625 219.292969 C 174.636719 218.28125 176.675781 216.921875 178.0625 214.5625 C 179.804688 211.609375 180.136719 207.648438 180.136719 204.296875 C 180.136719 203.972656 180.125 203.644531 180.105469 203.320312 C 180.09375 203.136719 180.078125 202.949219 180.054688 202.765625 L 180.023438 202.492188 L 180.074219 202.304688 L 177.921875 177.261719 L 175.667969 177.265625 L 175.476562 203.734375 L 171.722656 204.105469 L 169.496094 174.1875 L 167.054688 174.335938 L 166.570312 204.476562 L 165.242188 204.53125 C 164.964844 204.542969 164.6875 204.546875 164.414062 204.546875 C 164.136719 204.546875 163.855469 204.542969 163.578125 204.53125 L 162.257812 204.476562 L 161.578125 174.335938 L 159.136719 174.191406 L 157.101562 204.109375 L 153.347656 203.738281 L 153.15625 177.265625 L 150.894531 177.265625 L 147.984375 202.316406 L 148.03125 202.496094 L 148 202.761719 C 147.980469 202.949219 147.964844 203.136719 147.953125 203.320312 C 147.929688 203.648438 147.917969 203.972656 147.917969 204.296875 C 147.917969 207.648438 148.253906 211.609375 149.992188 214.5625 C 151.394531 216.941406 153.453125 218.300781 155.96875 219.3125 C 156.027344 219.335938 156.085938 219.359375 156.140625 219.382812 L 156.164062 219.382812 L 156.425781 219.492188 C 159.972656 220.988281 161.601562 223.9375 161.652344 227.765625 L 161.652344 227.808594 L 160.84375 245.292969 C 138.964844 236.59375 123.496094 215.226562 123.496094 190.246094 C 123.511719 157.535156 150.019531 131.027344 182.726562 131.027344 " fill-opacity="1" fill-rule="evenodd"/></g><path fill="#f6f5f4" d="M 205.695312 93.949219 C 206.75 93.949219 206.75 92.296875 205.695312 92.296875 C 204.640625 92.296875 204.640625 93.949219 205.695312 93.949219 Z M 205.695312 93.949219 " fill-opacity="1" fill-rule="nonzero"/><g clip-path="url(#cf88b002b7)"><path fill="#4d433a" d="M 137.5 88.253906 C 138.378906 86.324219 139.398438 84.355469 140.734375 82.421875 C 142.035156 80.488281 143.582031 78.519531 145.621094 76.621094 C 146.640625 75.671875 147.800781 74.722656 149.101562 73.84375 C 149.664062 73.457031 150.15625 73.140625 150.71875 72.789062 C 151.246094 72.4375 151.808594 72.121094 152.371094 71.804688 C 154.621094 70.503906 157.082031 69.308594 159.824219 68.324219 C 162.527344 67.339844 165.515625 66.601562 168.539062 66.285156 C 169.3125 66.214844 170.050781 66.144531 170.824219 66.109375 C 171.597656 66.074219 172.335938 66.074219 173.074219 66.109375 C 174.585938 66.144531 176.027344 66.320312 177.433594 66.566406 C 180.246094 67.058594 182.777344 67.867188 185.058594 68.886719 C 187.308594 69.90625 189.3125 71.066406 191.105469 72.332031 C 191.984375 72.964844 192.863281 73.632812 193.671875 74.300781 C 194.480469 74.96875 195.253906 75.671875 195.957031 76.375 C 196.695312 77.078125 197.398438 77.78125 198.066406 78.519531 C 198.417969 78.871094 198.734375 79.257812 199.050781 79.609375 L 199.542969 80.171875 L 199.964844 80.699219 C 200.527344 81.367188 201.054688 82 201.617188 82.667969 L 202.460938 83.652344 L 203.339844 84.636719 C 207.664062 89.414062 212.335938 94.125 217.152344 98.800781 C 217.890625 98.625 218.628906 98.484375 219.402344 98.378906 C 220.386719 98.203125 221.371094 98.097656 222.390625 97.992188 C 223.375 97.886719 224.394531 97.816406 225.378906 97.78125 C 225.871094 97.746094 226.398438 97.746094 226.890625 97.746094 C 227.382812 97.746094 227.910156 97.746094 228.402344 97.746094 C 232.40625 97.816406 236.484375 98.414062 240.246094 99.714844 C 241.195312 100.03125 242.109375 100.417969 243.023438 100.839844 C 243.9375 101.261719 244.78125 101.753906 245.625 102.246094 C 246.46875 102.773438 247.242188 103.335938 247.980469 103.933594 C 248.71875 104.53125 249.421875 105.199219 250.054688 105.902344 C 250.371094 106.253906 250.6875 106.605469 250.96875 106.957031 C 251.25 107.308594 251.53125 107.695312 251.8125 108.082031 C 252.339844 108.820312 252.796875 109.628906 253.21875 110.402344 C 253.535156 110.996094 253.816406 111.628906 254.0625 112.261719 C 254.871094 112.367188 255.644531 112.507812 256.378906 112.683594 C 258.171875 113.070312 259.929688 113.5625 261.617188 114.230469 C 264.992188 115.53125 268.050781 117.394531 270.476562 119.785156 C 271.707031 120.980469 272.726562 122.28125 273.605469 123.6875 C 274.027344 124.390625 274.414062 125.09375 274.765625 125.796875 C 275.117188 126.535156 275.398438 127.273438 275.644531 128.011719 C 276.136719 129.488281 276.488281 131 276.664062 132.511719 C 276.699219 132.898438 276.734375 133.25 276.769531 133.636719 C 276.804688 134.023438 276.804688 134.375 276.839844 134.761719 C 276.839844 135.144531 276.875 135.496094 276.875 135.882812 L 276.875 137.007812 C 276.804688 138.589844 276.558594 140.242188 276.066406 142 C 275.539062 143.757812 274.730469 145.585938 273.464844 147.414062 C 272.832031 148.328125 272.09375 149.242188 271.214844 150.085938 C 270.335938 150.929688 269.386719 151.738281 268.367188 152.476562 C 267.347656 153.214844 266.257812 153.847656 265.132812 154.375 C 264.007812 154.9375 262.882812 155.359375 261.757812 155.746094 C 259.507812 156.519531 257.328125 156.976562 255.222656 157.257812 C 253.148438 157.539062 251.144531 157.644531 249.210938 157.679688 C 248.332031 157.679688 247.453125 157.644531 246.609375 157.609375 C 246.152344 159.609375 245.695312 161.578125 245.238281 163.582031 C 244.746094 165.691406 244.21875 167.800781 243.691406 169.910156 C 243.164062 172.019531 242.636719 174.128906 242.074219 176.238281 L 241.792969 177.328125 C 241.476562 178.523438 240.597656 179.648438 239.191406 180.421875 C 236.554688 181.933594 233.144531 181.582031 231.566406 179.648438 C 231.566406 179.648438 231.496094 179.578125 231.460938 179.542969 L 231.355469 179.4375 L 231.109375 179.226562 L 230.617188 178.769531 C 230.300781 178.453125 229.949219 178.171875 229.597656 177.855469 C 228.894531 177.257812 228.191406 176.660156 227.488281 176.0625 C 226.046875 174.867188 224.570312 173.671875 223.09375 172.546875 C 220.105469 170.226562 216.941406 168.011719 213.707031 165.867188 C 210.4375 163.722656 207.066406 161.683594 203.550781 159.75 C 200.035156 157.820312 196.34375 156.027344 192.511719 154.304688 C 193.636719 154.410156 194.761719 154.515625 195.886719 154.691406 C 196.449219 154.761719 197.011719 154.867188 197.574219 154.9375 L 199.226562 155.21875 L 200.070312 155.359375 L 200.878906 155.535156 L 202.53125 155.886719 C 203.058594 155.992188 203.621094 156.132812 204.148438 156.273438 C 204.675781 156.414062 205.238281 156.519531 205.765625 156.660156 C 210.050781 157.75 214.234375 159.117188 218.242188 160.699219 C 222.25 162.28125 226.152344 164.074219 229.878906 166.042969 C 230.335938 166.289062 230.757812 166.535156 231.214844 166.746094 C 231.285156 166.113281 231.355469 165.515625 231.460938 164.882812 C 231.320312 164.777344 231.179688 164.636719 231.039062 164.53125 C 230.617188 164.179688 230.160156 163.828125 229.703125 163.476562 C 227.910156 162.105469 226.082031 160.769531 224.148438 159.503906 C 222.214844 158.242188 220.210938 157.046875 218.101562 155.921875 C 215.992188 154.832031 213.777344 153.847656 211.351562 153.074219 C 214.023438 153.179688 216.695312 153.53125 219.332031 154.023438 C 221.933594 154.515625 224.5 155.148438 227.03125 155.851562 C 228.859375 156.378906 230.652344 156.941406 232.40625 157.503906 C 232.441406 157.328125 232.441406 157.117188 232.476562 156.941406 C 232.511719 156.589844 232.582031 156.238281 232.617188 155.886719 C 231.882812 155.21875 231.144531 154.515625 230.371094 153.882812 C 229.28125 153.003906 228.15625 152.089844 226.925781 151.316406 C 225.695312 150.507812 224.429688 149.769531 222.953125 149.171875 C 224.675781 149.101562 226.433594 149.242188 228.15625 149.417969 C 229.878906 149.628906 231.566406 149.910156 233.25 150.261719 C 233.320312 150.261719 233.355469 150.296875 233.425781 150.296875 C 233.460938 150.085938 233.53125 149.839844 233.601562 149.628906 C 234.761719 146.464844 238.804688 144.355469 242.636719 144.917969 L 243.339844 145.023438 L 244.113281 145.128906 C 244.429688 145.164062 244.746094 145.199219 245.0625 145.234375 C 245.695312 145.304688 246.328125 145.375 246.996094 145.410156 C 248.296875 145.515625 249.5625 145.515625 250.828125 145.480469 C 253.289062 145.445312 255.644531 145.058594 257.222656 144.496094 C 258.03125 144.214844 258.628906 143.898438 259.121094 143.582031 C 259.367188 143.40625 259.578125 143.230469 259.789062 143.054688 C 260 142.84375 260.175781 142.632812 260.351562 142.386719 C 260.738281 141.894531 261.054688 141.226562 261.335938 140.453125 C 261.582031 139.679688 261.792969 138.765625 261.863281 137.816406 L 261.898438 137.640625 L 261.898438 137.429688 L 261.933594 137.042969 C 261.96875 136.796875 261.96875 136.515625 261.96875 136.269531 L 261.96875 135.496094 C 261.96875 135.25 261.96875 135.007812 261.933594 134.761719 C 261.863281 133.777344 261.757812 132.828125 261.511719 131.914062 C 261.300781 131 260.984375 130.121094 260.597656 129.3125 C 260.210938 128.503906 259.71875 127.730469 259.121094 126.992188 C 258.523438 126.253906 257.855469 125.585938 257.082031 124.953125 C 256.308594 124.320312 255.433594 123.757812 254.484375 123.230469 C 253.535156 122.703125 252.480469 122.28125 251.390625 121.894531 C 250.828125 121.71875 250.265625 121.542969 249.703125 121.367188 C 249.421875 121.296875 249.140625 121.226562 248.859375 121.15625 L 248.472656 121.085938 L 248.296875 121.050781 L 248.191406 121.050781 L 248.226562 121.050781 L 243.65625 117.570312 C 243.585938 116.304688 243.445312 115.039062 243.128906 113.84375 C 242.8125 112.648438 242.355469 111.488281 241.757812 110.402344 C 240.527344 108.222656 238.664062 106.253906 236.167969 104.636719 C 234.9375 103.828125 233.53125 103.125 232.054688 102.492188 C 231.320312 102.175781 230.546875 101.894531 229.738281 101.613281 C 228.929688 101.332031 228.121094 101.085938 227.277344 100.839844 C 226.855469 100.734375 226.433594 100.628906 226.011719 100.523438 C 225.589844 100.417969 225.167969 100.3125 224.710938 100.207031 C 223.832031 99.996094 222.953125 99.855469 222.039062 99.679688 C 220.527344 99.433594 219.015625 99.1875 217.433594 99.046875 C 217.714844 99.328125 217.996094 99.609375 218.277344 99.855469 L 222.214844 103.617188 L 226.1875 107.414062 C 228.859375 109.945312 231.496094 112.472656 234.164062 115.074219 C 232.195312 114.40625 230.335938 113.632812 228.472656 112.824219 C 227.558594 112.4375 226.609375 112.015625 225.695312 111.59375 L 222.988281 110.332031 C 219.367188 108.609375 215.886719 106.746094 212.476562 104.8125 C 209.066406 102.84375 205.765625 100.804688 202.566406 98.589844 C 199.367188 96.410156 196.273438 94.089844 193.320312 91.628906 C 192.582031 90.996094 191.84375 90.398438 191.140625 89.765625 C 190.402344 89.132812 189.699219 88.5 188.996094 87.832031 L 188.011719 86.957031 C 187.695312 86.675781 187.378906 86.394531 187.0625 86.113281 C 186.429688 85.550781 185.796875 85.023438 185.128906 84.53125 C 183.832031 83.511719 182.496094 82.5625 181.125 81.71875 C 179.753906 80.910156 178.347656 80.171875 176.941406 79.644531 C 175.535156 79.082031 174.164062 78.730469 172.792969 78.519531 C 171.457031 78.308594 170.121094 78.308594 168.785156 78.449219 C 167.449219 78.589844 166.078125 78.941406 164.636719 79.433594 C 163.898438 79.679688 163.195312 79.996094 162.421875 80.347656 C 161.683594 80.699219 160.910156 81.085938 160.171875 81.472656 C 159.789062 81.683594 159.402344 81.894531 159.050781 82.140625 C 158.664062 82.351562 158.277344 82.597656 157.925781 82.84375 C 157.46875 83.125 156.976562 83.511719 156.449219 83.933594 C 155.429688 84.8125 154.410156 85.972656 153.496094 87.234375 C 152.582031 88.5 151.703125 89.871094 150.929688 91.3125 C 150.15625 92.753906 149.488281 94.265625 148.890625 95.777344 C 148.292969 97.324219 147.765625 98.871094 147.34375 100.453125 C 146.886719 102.035156 146.535156 103.652344 146.253906 105.234375 C 145.65625 108.46875 145.410156 111.699219 145.410156 114.933594 C 145.445312 120.3125 146.324219 125.65625 148.257812 130.753906 C 148.292969 130.753906 148.328125 130.71875 148.328125 130.71875 C 149.417969 130.367188 150.507812 130.015625 151.597656 129.664062 C 151.457031 128.714844 151.386719 127.800781 151.316406 126.851562 C 151.175781 124.953125 151.140625 123.054688 151.175781 121.15625 C 151.210938 119.257812 151.316406 117.359375 151.527344 115.460938 C 151.738281 113.5625 152.019531 111.699219 152.371094 109.804688 C 152.722656 107.941406 153.179688 106.042969 153.671875 104.179688 L 154.058594 102.773438 C 154.199219 102.316406 154.339844 101.859375 154.515625 101.402344 C 154.796875 100.488281 155.148438 99.574219 155.464844 98.660156 C 156.835938 95.003906 158.523438 91.417969 160.523438 87.9375 C 159.332031 91.558594 158.488281 95.214844 157.996094 98.835938 C 157.890625 99.75 157.75 100.628906 157.679688 101.542969 C 157.644531 102 157.609375 102.457031 157.574219 102.878906 L 157.503906 104.214844 C 157.433594 106.007812 157.398438 107.800781 157.503906 109.558594 C 157.574219 111.3125 157.714844 113.070312 157.960938 114.792969 C 158.207031 116.515625 158.488281 118.238281 158.875 119.925781 C 159.261719 121.613281 159.71875 123.265625 160.242188 124.882812 C 160.523438 125.691406 160.804688 126.5 161.085938 127.273438 C 161.085938 127.308594 161.121094 127.34375 161.121094 127.378906 C 162.457031 127.132812 163.828125 126.957031 165.164062 126.78125 C 165.164062 126.640625 165.199219 126.464844 165.199219 126.289062 C 165.304688 125.128906 165.445312 123.96875 165.65625 122.84375 C 166.042969 120.558594 166.535156 118.308594 167.203125 116.09375 L 167.449219 115.25 L 167.730469 114.40625 C 167.90625 113.84375 168.082031 113.316406 168.292969 112.753906 C 168.714844 111.664062 169.101562 110.578125 169.59375 109.488281 C 170.507812 107.34375 171.632812 105.234375 172.792969 103.160156 C 172.441406 105.339844 172.160156 107.484375 172.125 109.628906 C 172.054688 110.683594 172.089844 111.734375 172.125 112.789062 C 172.125 113.316406 172.195312 113.84375 172.195312 114.371094 L 172.230469 115.144531 L 172.300781 115.917969 C 172.511719 117.992188 172.863281 119.996094 173.320312 121.964844 C 173.566406 122.949219 173.847656 123.933594 174.128906 124.882812 C 174.269531 125.269531 174.410156 125.691406 174.550781 126.078125 L 177.644531 126.078125 C 177.679688 125.761719 177.714844 125.480469 177.75 125.164062 C 177.925781 123.617188 178.171875 122.105469 178.558594 120.628906 L 178.839844 119.503906 C 178.945312 119.117188 179.050781 118.765625 179.15625 118.378906 C 179.402344 117.640625 179.613281 116.902344 179.894531 116.199219 C 180.386719 114.757812 181.054688 113.316406 181.722656 111.945312 C 181.898438 113.351562 182.074219 114.722656 182.425781 116.058594 C 182.566406 116.726562 182.777344 117.394531 182.988281 118.027344 C 183.09375 118.34375 183.199219 118.660156 183.304688 119.011719 L 183.480469 119.503906 L 183.65625 119.960938 C 184.144531 121.226562 184.707031 122.457031 185.339844 123.617188 C 185.65625 124.214844 186.007812 124.777344 186.359375 125.339844 C 186.535156 125.621094 186.710938 125.902344 186.921875 126.148438 C 187.027344 126.289062 187.097656 126.394531 187.203125 126.535156 C 187.238281 126.570312 187.273438 126.640625 187.308594 126.675781 C 188.714844 126.816406 190.085938 126.992188 191.421875 127.203125 C 194.761719 127.695312 198.03125 128.328125 201.230469 129.101562 C 204.429688 129.839844 207.523438 130.753906 210.542969 131.773438 C 212.054688 132.265625 213.53125 132.792969 215.007812 133.390625 C 216.484375 133.953125 217.890625 134.550781 219.332031 135.179688 C 222.144531 136.445312 224.886719 137.78125 227.417969 139.363281 C 220.984375 138.308594 214.585938 137.464844 208.1875 136.832031 C 204.992188 136.515625 201.828125 136.269531 198.628906 136.09375 C 196.976562 135.988281 195.359375 135.953125 193.742188 135.882812 C 192.195312 135.847656 190.683594 135.8125 189.136719 135.8125 C 185.972656 135.8125 182.847656 135.917969 179.71875 136.09375 C 179.4375 136.128906 179.121094 136.128906 178.839844 136.164062 C 178.347656 136.199219 177.855469 136.234375 177.398438 136.269531 L 176.800781 136.304688 L 176.238281 136.375 L 173.917969 136.585938 C 173.53125 136.621094 173.144531 136.691406 172.757812 136.726562 C 171.984375 136.832031 171.246094 136.902344 170.472656 137.042969 L 168.222656 137.394531 L 164.847656 138.027344 C 164.460938 138.097656 164.109375 138.203125 163.757812 138.273438 C 163.019531 138.449219 162.28125 138.625 161.578125 138.800781 L 159.4375 139.398438 L 158.910156 139.539062 C 158.734375 139.574219 158.558594 139.644531 158.382812 139.714844 L 157.328125 140.066406 C 157.152344 140.101562 156.976562 140.171875 156.800781 140.207031 C 156.449219 141.191406 156.0625 142.210938 155.675781 143.195312 C 155.675781 143.230469 155.640625 143.265625 155.640625 143.300781 L 154.550781 146.183594 L 154.480469 146.324219 L 153.285156 149.347656 C 152.757812 150.683594 152.230469 152.019531 151.703125 153.355469 C 151.738281 153.355469 151.773438 153.355469 151.84375 153.355469 C 153.671875 153.285156 155.464844 153.25 157.257812 153.25 C 158.171875 153.25 159.050781 153.25 159.960938 153.285156 C 160.875 153.285156 161.753906 153.355469 162.632812 153.355469 C 164.425781 153.425781 166.183594 153.53125 167.976562 153.671875 C 168.855469 153.742188 169.734375 153.8125 170.613281 153.917969 L 171.949219 154.058594 L 173.25 154.199219 C 175.007812 154.410156 176.730469 154.65625 178.453125 154.9375 L 181.019531 155.394531 C 181.863281 155.535156 182.707031 155.746094 183.550781 155.921875 C 186.921875 156.660156 190.226562 157.503906 193.390625 158.59375 C 193.777344 158.734375 194.199219 158.839844 194.585938 158.976562 L 196.90625 159.820312 C 197.292969 159.960938 197.679688 160.101562 198.066406 160.277344 C 198.839844 160.59375 199.578125 160.910156 200.316406 161.226562 C 200.703125 161.367188 201.054688 161.542969 201.441406 161.71875 L 202.53125 162.246094 C 203.269531 162.597656 203.972656 162.914062 204.675781 163.335938 L 206.75 164.460938 C 207.417969 164.847656 208.082031 165.269531 208.75 165.691406 L 209.734375 166.324219 L 210.683594 166.992188 C 211.316406 167.414062 211.914062 167.871094 212.546875 168.328125 C 213.144531 168.785156 213.742188 169.277344 214.304688 169.734375 L 215.183594 170.4375 C 215.464844 170.683594 215.710938 170.929688 215.992188 171.175781 C 216.519531 171.667969 217.046875 172.195312 217.574219 172.6875 C 216.800781 172.40625 216.0625 172.125 215.324219 171.84375 C 214.9375 171.703125 214.585938 171.5625 214.199219 171.421875 L 213.074219 171.035156 C 212.300781 170.789062 211.5625 170.507812 210.824219 170.261719 C 210.050781 170.015625 209.277344 169.804688 208.539062 169.558594 L 207.417969 169.207031 L 206.257812 168.890625 L 203.972656 168.257812 C 202.425781 167.90625 200.914062 167.484375 199.332031 167.167969 L 198.171875 166.921875 C 197.785156 166.851562 197.398438 166.746094 197.011719 166.675781 C 196.238281 166.535156 195.429688 166.394531 194.65625 166.253906 C 193.882812 166.113281 193.074219 166.007812 192.300781 165.867188 L 191.140625 165.691406 C 190.753906 165.621094 190.332031 165.585938 189.945312 165.550781 C 186.78125 165.09375 183.585938 164.8125 180.386719 164.566406 C 177.1875 164.320312 173.953125 164.214844 170.71875 164.179688 L 168.292969 164.179688 C 167.484375 164.179688 166.675781 164.179688 165.867188 164.214844 C 165.058594 164.25 164.25 164.25 163.441406 164.285156 C 162.632812 164.320312 161.824219 164.320312 161.015625 164.355469 C 159.402344 164.425781 157.785156 164.496094 156.132812 164.601562 C 155.324219 164.671875 154.515625 164.707031 153.707031 164.777344 L 152.476562 164.882812 L 151.28125 164.988281 C 149.664062 165.128906 148.046875 165.304688 146.464844 165.515625 C 145.65625 165.621094 144.882812 165.726562 144.109375 165.832031 C 143.722656 165.867188 143.335938 165.9375 142.949219 166.007812 L 142.386719 166.078125 L 142.140625 166.113281 L 141.929688 166.148438 C 140.980469 166.324219 139.996094 166.359375 139.011719 166.21875 C 135.078125 165.65625 132.828125 162.5625 134.023438 159.292969 L 134.09375 159.082031 C 134.832031 157.082031 135.605469 155.042969 136.375 153.039062 C 137.148438 151.035156 137.921875 149.03125 138.730469 146.992188 L 139.925781 143.96875 L 141.15625 140.945312 C 141.753906 139.433594 142.386719 137.957031 143.019531 136.445312 C 140.699219 133.636719 138.835938 130.507812 137.359375 127.273438 C 135.851562 123.898438 134.761719 120.347656 134.128906 116.726562 C 133.460938 113.105469 133.25 109.347656 133.460938 105.585938 C 133.566406 103.6875 133.777344 101.789062 134.09375 99.855469 C 134.410156 97.957031 134.867188 96.023438 135.429688 94.089844 C 135.953125 92.15625 136.621094 90.222656 137.5 88.253906 Z M 137.5 88.253906 " fill-opacity="1" fill-rule="nonzero"/></g><g fill="#4d433a" fill-opacity="1"><g transform="translate(78.475141, 274.310971)"><g><path d="M 31.257812 -56.878906 C 29.902344 -56.878906 30.203125 -56.351562 29.527344 -55.601562 C 29.078125 -55.148438 23.59375 -53.570312 22.691406 -53.347656 C 16.453125 -51.242188 7.214844 -48.011719 1.726562 -43.953125 C -2.179688 -41.023438 -1.351562 -37.71875 4.132812 -37.34375 C 5.636719 -37.265625 6.761719 -37.191406 7.738281 -37.191406 C 10.066406 -37.191406 11.570312 -37.417969 14.875 -37.792969 C 16.980469 -38.019531 16.003906 -39.371094 15.476562 -39.597656 C 15.328125 -39.671875 15.101562 -39.671875 14.726562 -39.671875 C 13.449219 -39.671875 10.820312 -39.445312 8.191406 -39.445312 C 6.460938 -39.445312 4.660156 -39.519531 3.230469 -39.898438 C 2.480469 -39.972656 2.480469 -40.121094 1.878906 -40.273438 C 3.679688 -43.726562 16.53125 -48.613281 21.113281 -49.964844 C 22.539062 -50.414062 27.046875 -52.21875 28.476562 -52.21875 C 26.898438 -48.6875 24.195312 -25.996094 23.816406 -21.414062 C 23.667969 -19.984375 23.367188 -19.984375 22.238281 -19.386719 C 19.234375 -18.03125 11.722656 -15.027344 11.722656 -11.570312 C 11.722656 -10.820312 13 -10.292969 13.976562 -10.292969 C 14.875 -10.292969 15.554688 -10.820312 14.652344 -12.246094 C 16.152344 -13.222656 21.339844 -16.53125 23.367188 -16.679688 C 23.140625 -16.078125 21.261719 5.257812 21.113281 8.191406 C 20.960938 11.421875 20.210938 22.917969 21.1875 25.246094 C 21.488281 25.847656 22.015625 26.449219 22.691406 26.371094 C 24.269531 26.222656 23.667969 22.691406 23.59375 19.683594 C 23.59375 16.152344 24.34375 7.964844 24.492188 3.90625 L 25.394531 -6.160156 C 25.472656 -8.789062 26.222656 -13.449219 26.296875 -16.078125 C 26.449219 -19.160156 26.671875 -18.332031 32.609375 -20.660156 C 37.867188 -22.691406 43.128906 -24.71875 48.835938 -24.71875 C 49.738281 -24.71875 49.738281 -24.871094 49.363281 -26.371094 C 48.761719 -26.671875 47.859375 -26.746094 46.808594 -26.746094 C 43.652344 -26.746094 39.070312 -25.769531 37.34375 -25.246094 L 26.972656 -21.414062 C 26.972656 -24.34375 27.425781 -27.199219 27.875 -29.753906 C 29.003906 -37.71875 30.203125 -45.683594 31.933594 -53.347656 C 35.089844 -54.023438 38.09375 -55 41.472656 -55.601562 C 47.183594 -56.953125 64.164062 -60.785156 73.707031 -60.785156 C 75.585938 -60.785156 77.238281 -60.632812 78.367188 -60.257812 C 79.265625 -59.882812 79.945312 -59.730469 80.019531 -58.453125 C 80.84375 -58.453125 80.921875 -58.53125 81.519531 -58.605469 C 81.597656 -59.207031 81.746094 -59.207031 81.746094 -59.808594 C 81.746094 -62.363281 76.488281 -63.1875 73.707031 -63.1875 C 63.414062 -63.1875 43.953125 -59.28125 33.433594 -56.425781 C 32.984375 -56.351562 32.683594 -56.277344 32.457031 -56.277344 C 31.707031 -56.277344 32.234375 -56.878906 31.257812 -56.878906 Z M 31.257812 -56.878906 "/></g></g></g><g fill="#4d433a" fill-opacity="1"><g transform="translate(130.013709, 274.310971)"><g><path d="M 0 -7.589844 C 0 -4.882812 0.226562 -3.605469 3.003906 -3.605469 C 5.183594 -3.605469 7.511719 -10.667969 8.941406 -11.644531 C 8.941406 -8.414062 11.34375 -4.507812 15.101562 -4.507812 C 16.378906 -4.507812 17.808594 -4.957031 19.308594 -6.011719 L 21.5625 -7.8125 C 25.394531 -11.496094 24.945312 -13.375 23.816406 -13.375 C 23.367188 -13.375 22.839844 -13.148438 22.464844 -12.621094 C 21.414062 -11.496094 21.1875 -10.820312 19.761719 -9.542969 C 18.109375 -7.890625 16.53125 -6.988281 15.101562 -6.988281 C 13.523438 -6.988281 12.171875 -8.191406 11.570312 -10.894531 C 10.894531 -13.75 12.171875 -17.128906 9.542969 -17.128906 C 8.566406 -17.128906 5.484375 -10.746094 3.980469 -8.414062 L 3.382812 -7.511719 C 3.003906 -7.0625 3.230469 -7.363281 3.003906 -7.136719 C 3.003906 -9.617188 4.058594 -12.472656 5.035156 -14.050781 C 7.214844 -17.808594 8.714844 -18.859375 9.84375 -18.859375 C 11.269531 -18.859375 12.171875 -17.128906 13.222656 -17.128906 C 15.175781 -17.128906 13.222656 -21.414062 9.691406 -21.414062 C 4.433594 -21.414062 0 -11.871094 0 -7.589844 Z M 0 -7.589844 "/></g></g></g><g fill="#4d433a" fill-opacity="1"><g transform="translate(151.801151, 274.310971)"><g><path d="M 0.902344 12.398438 C 0.902344 9.390625 3.082031 6.011719 4.882812 3.832031 C 5.785156 2.78125 7.589844 0.527344 8.789062 -0.148438 C 8.789062 1.953125 8.867188 3.605469 8.339844 5.335938 C 7.664062 7.8125 6.011719 11.421875 3.980469 12.921875 C 3.457031 13.375 2.554688 13.976562 1.878906 13.976562 C 1.351562 13.976562 0.902344 13.523438 0.902344 12.398438 Z M 0.226562 -12.171875 C 0.226562 -8.191406 5.484375 -6.914062 7.8125 -2.628906 C 6.6875 -0.828125 -1.503906 5.636719 -1.503906 12.398438 C -1.503906 15.101562 0 16.53125 2.105469 16.53125 C 4.359375 16.53125 7.214844 14.800781 9.390625 11.121094 C 14.425781 2.554688 11.34375 -1.804688 11.644531 -2.855469 C 11.796875 -3.457031 17.128906 -7.4375 17.957031 -7.890625 L 23.066406 -11.421875 C 24.792969 -12.398438 24.945312 -13.675781 23.742188 -13.675781 C 23.066406 -13.675781 22.089844 -13.375 20.8125 -12.472656 L 13.824219 -7.589844 C 12.699219 -6.613281 11.644531 -5.785156 10.445312 -4.957031 C 6.535156 -10.820312 0.902344 -10.59375 4.882812 -15.101562 C 6.011719 -16.378906 5.785156 -16.003906 7.589844 -16.453125 C 8.039062 -18.332031 7.363281 -19.085938 6.3125 -19.085938 C 4.132812 -19.085938 0.226562 -16.003906 0.226562 -12.171875 Z M 0.226562 -12.171875 "/></g></g></g><g fill="#4d433a" fill-opacity="1"><g transform="translate(173.513472, 274.310971)"><g><path d="M -21.113281 -33.511719 C -21.113281 -32.457031 -20.363281 -32.234375 -19.535156 -32.234375 C -19.085938 -32.234375 -18.632812 -32.308594 -18.257812 -32.382812 C -17.582031 -33.8125 -18.332031 -33.511719 -16.453125 -34.261719 C -15.554688 -34.636719 -14.875 -35.164062 -13.976562 -35.539062 C -9.316406 -37.34375 -5.035156 -38.621094 -0.0742188 -39.820312 C 0.675781 -40.046875 2.40625 -40.347656 2.855469 -40.496094 L 2.179688 -33.511719 C 2.105469 -32.535156 2.027344 -30.878906 1.878906 -29.902344 C 1.503906 -27.726562 1.425781 -17.582031 1.425781 -14.726562 L 1.203125 -11.195312 C 1.203125 -5.710938 0.976562 3.230469 1.425781 8.640625 C 1.425781 10.445312 1.503906 13.148438 3.457031 13.148438 C 5.410156 13.148438 4.28125 7.964844 4.28125 6.234375 C 4.132812 2.929688 4.207031 -12.097656 4.433594 -14.351562 C 4.582031 -15.929688 4.433594 -19.308594 4.433594 -21.488281 C 4.433594 -22.539062 4.660156 -22.539062 4.660156 -23.515625 C 4.660156 -24.269531 4.582031 -25.171875 4.660156 -25.847656 L 6.160156 -41.25 C 7.964844 -41.625 19.386719 -43.804688 23.515625 -43.804688 C 24.042969 -43.804688 24.417969 -43.804688 24.71875 -43.726562 C 25.621094 -43.503906 25.394531 -43.804688 25.621094 -43.050781 C 28.476562 -43.050781 27.574219 -46.058594 24.042969 -46.058594 C 19.460938 -46.058594 15.027344 -45.304688 10.667969 -44.480469 C 9.542969 -44.328125 7.964844 -43.878906 6.761719 -43.878906 C 6.761719 -46.28125 8.265625 -44.328125 8.265625 -46.28125 C 8.265625 -46.734375 8.191406 -47.035156 8.191406 -47.261719 C 8.113281 -48.011719 8.265625 -47.410156 8.265625 -48.3125 C 8.265625 -49.515625 7.664062 -50.492188 6.835938 -50.492188 C 5.859375 -50.492188 4.660156 -49.136719 3.90625 -45.082031 C 3.382812 -42.527344 3.605469 -43.203125 0.449219 -42.375 C -3.832031 -41.175781 -21.113281 -36.890625 -21.113281 -33.511719 Z M -21.113281 -33.511719 "/></g></g></g><g fill="#4d433a" fill-opacity="1"><g transform="translate(182.228448, 274.310971)"><g/></g></g><g fill="#4d433a" fill-opacity="1"><g transform="translate(201.686896, 274.310971)"><g><path d="M 31.257812 -56.878906 C 29.902344 -56.878906 30.203125 -56.351562 29.527344 -55.601562 C 29.078125 -55.148438 23.59375 -53.570312 22.691406 -53.347656 C 16.453125 -51.242188 7.214844 -48.011719 1.726562 -43.953125 C -2.179688 -41.023438 -1.351562 -37.71875 4.132812 -37.34375 C 5.636719 -37.265625 6.761719 -37.191406 7.738281 -37.191406 C 10.066406 -37.191406 11.570312 -37.417969 14.875 -37.792969 C 16.980469 -38.019531 16.003906 -39.371094 15.476562 -39.597656 C 15.328125 -39.671875 15.101562 -39.671875 14.726562 -39.671875 C 13.449219 -39.671875 10.820312 -39.445312 8.191406 -39.445312 C 6.460938 -39.445312 4.660156 -39.519531 3.230469 -39.898438 C 2.480469 -39.972656 2.480469 -40.121094 1.878906 -40.273438 C 3.679688 -43.726562 16.53125 -48.613281 21.113281 -49.964844 C 22.539062 -50.414062 27.046875 -52.21875 28.476562 -52.21875 C 26.898438 -48.6875 24.195312 -25.996094 23.816406 -21.414062 C 23.667969 -19.984375 23.367188 -19.984375 22.238281 -19.386719 C 19.234375 -18.03125 11.722656 -15.027344 11.722656 -11.570312 C 11.722656 -10.820312 13 -10.292969 13.976562 -10.292969 C 14.875 -10.292969 15.554688 -10.820312 14.652344 -12.246094 C 16.152344 -13.222656 21.339844 -16.53125 23.367188 -16.679688 C 23.140625 -16.078125 21.261719 5.257812 21.113281 8.191406 C 20.960938 11.421875 20.210938 22.917969 21.1875 25.246094 C 21.488281 25.847656 22.015625 26.449219 22.691406 26.371094 C 24.269531 26.222656 23.667969 22.691406 23.59375 19.683594 C 23.59375 16.152344 24.34375 7.964844 24.492188 3.90625 L 25.394531 -6.160156 C 25.472656 -8.789062 26.222656 -13.449219 26.296875 -16.078125 C 26.449219 -19.160156 26.671875 -18.332031 32.609375 -20.660156 C 37.867188 -22.691406 43.128906 -24.71875 48.835938 -24.71875 C 49.738281 -24.71875 49.738281 -24.871094 49.363281 -26.371094 C 48.761719 -26.671875 47.859375 -26.746094 46.808594 -26.746094 C 43.652344 -26.746094 39.070312 -25.769531 37.34375 -25.246094 L 26.972656 -21.414062 C 26.972656 -24.34375 27.425781 -27.199219 27.875 -29.753906 C 29.003906 -37.71875 30.203125 -45.683594 31.933594 -53.347656 C 35.089844 -54.023438 38.09375 -55 41.472656 -55.601562 C 47.183594 -56.953125 64.164062 -60.785156 73.707031 -60.785156 C 75.585938 -60.785156 77.238281 -60.632812 78.367188 -60.257812 C 79.265625 -59.882812 79.945312 -59.730469 80.019531 -58.453125 C 80.84375 -58.453125 80.921875 -58.53125 81.519531 -58.605469 C 81.597656 -59.207031 81.746094 -59.207031 81.746094 -59.808594 C 81.746094 -62.363281 76.488281 -63.1875 73.707031 -63.1875 C 63.414062 -63.1875 43.953125 -59.28125 33.433594 -56.425781 C 32.984375 -56.351562 32.683594 -56.277344 32.457031 -56.277344 C 31.707031 -56.277344 32.234375 -56.878906 31.257812 -56.878906 Z M 31.257812 -56.878906 "/></g></g></g><g fill="#4d433a" fill-opacity="1"><g transform="translate(253.225464, 274.310971)"><g><path d="M 3.757812 -1.726562 C 2.105469 -5.183594 5.558594 -11.945312 6.085938 -14.125 C 8.714844 -12.398438 6.835938 -2.554688 3.757812 -1.726562 Z M 0 -4.28125 C 0 -0.375 1.652344 1.578125 3.605469 1.578125 C 5.859375 1.578125 8.640625 -1.050781 9.765625 -6.234375 C 11.421875 -13.976562 7.8125 -15.253906 7.4375 -16.679688 C 7.8125 -17.28125 8.492188 -17.730469 8.714844 -18.257812 C 8.941406 -18.859375 8.492188 -20.0625 7.511719 -20.0625 C 3.832031 -20.0625 0 -7.664062 0 -4.28125 Z M 0 -4.28125 "/></g></g></g><g fill="#4d433a" fill-opacity="1"><g transform="translate(266.448187, 274.310971)"><g><path d="M 3.757812 -1.726562 C 2.105469 -5.183594 5.558594 -11.945312 6.085938 -14.125 C 8.714844 -12.398438 6.835938 -2.554688 3.757812 -1.726562 Z M 0 -4.28125 C 0 -0.375 1.652344 1.578125 3.605469 1.578125 C 5.859375 1.578125 8.640625 -1.050781 9.765625 -6.234375 C 11.421875 -13.976562 7.8125 -15.253906 7.4375 -16.679688 C 7.8125 -17.28125 8.492188 -17.730469 8.714844 -18.257812 C 8.941406 -18.859375 8.492188 -20.0625 7.511719 -20.0625 C 3.832031 -20.0625 0 -7.664062 0 -4.28125 Z M 0 -4.28125 "/></g></g></g><g fill="#4d433a" fill-opacity="1"><g transform="translate(279.67091, 274.310971)"><g><path d="M 2.628906 -5.484375 C 2.628906 -10.144531 4.207031 -15.175781 6.835938 -18.40625 C 7.589844 -19.460938 8.414062 -20.4375 10.144531 -20.660156 C 10.066406 -19.535156 4.582031 -4.808594 2.929688 -4.808594 C 2.703125 -4.808594 2.628906 -4.957031 2.628906 -5.484375 Z M 11.195312 -22.691406 C 10.066406 -22.691406 10.519531 -22.917969 9.691406 -22.917969 C 2.855469 -22.917969 -3.679688 -2.179688 2.628906 -2.179688 C 5.484375 -2.179688 6.914062 -5.9375 7.964844 -8.265625 L 10.59375 -14.652344 C 10.820312 -15.328125 10.746094 -15.175781 11.195312 -15.628906 C 11.195312 -12.621094 9.765625 12.621094 13.148438 12.621094 C 15.851562 12.621094 13.976562 10.96875 13.898438 6.085938 C 13.75 -6.535156 12.773438 -19.761719 16.453125 -32.007812 C 16.90625 -33.8125 19.683594 -41.324219 16.90625 -41.324219 C 16.832031 -41.324219 16.679688 -41.25 16.53125 -41.25 C 14.726562 -40.875 13.898438 -35.539062 13.523438 -33.960938 L 11.945312 -25.472656 C 11.644531 -24.492188 11.195312 -23.742188 11.195312 -22.691406 Z M 11.195312 -22.691406 "/></g></g></g><g fill="#4d433a" fill-opacity="1"><g transform="translate(154.777099, 302.362453)"><g><path d="M 10.125 -6.6875 C 10.125 -5.519531 10.046875 -4.5 9.890625 -3.625 C 9.734375 -2.757812 9.46875 -2.039062 9.09375 -1.46875 C 8.726562 -0.90625 8.234375 -0.484375 7.609375 -0.203125 C 6.984375 0.078125 6.203125 0.21875 5.265625 0.21875 C 4.617188 0.21875 4.015625 0.179688 3.453125 0.109375 C 2.890625 0.0351562 2.378906 -0.0976562 1.921875 -0.296875 C 1.472656 -0.492188 1.085938 -0.757812 0.765625 -1.09375 C 0.453125 -1.4375 0.222656 -1.875 0.078125 -2.40625 C 0.046875 -2.46875 0.03125 -2.5625 0.03125 -2.6875 C 0.03125 -2.832031 0.0664062 -2.941406 0.140625 -3.015625 C 0.222656 -3.085938 0.316406 -3.125 0.421875 -3.125 C 0.515625 -3.125 0.609375 -3.085938 0.703125 -3.015625 C 0.796875 -2.941406 0.863281 -2.835938 0.90625 -2.703125 C 1.019531 -2.179688 1.226562 -1.78125 1.53125 -1.5 C 1.832031 -1.21875 2.1875 -1.003906 2.59375 -0.859375 C 3 -0.710938 3.429688 -0.625 3.890625 -0.59375 C 4.359375 -0.5625 4.816406 -0.546875 5.265625 -0.546875 C 6.054688 -0.546875 6.707031 -0.679688 7.21875 -0.953125 C 7.726562 -1.222656 8.125 -1.613281 8.40625 -2.125 C 8.6875 -2.644531 8.878906 -3.285156 8.984375 -4.046875 C 9.097656 -4.804688 9.15625 -5.6875 9.15625 -6.6875 L 9.15625 -11.765625 C 9.15625 -11.984375 9.1875 -12.164062 9.25 -12.3125 C 9.3125 -12.46875 9.453125 -12.546875 9.671875 -12.546875 C 9.765625 -12.546875 9.84375 -12.519531 9.90625 -12.46875 C 9.96875 -12.425781 10.007812 -12.367188 10.03125 -12.296875 C 10.0625 -12.222656 10.082031 -12.140625 10.09375 -12.046875 C 10.113281 -11.953125 10.125 -11.859375 10.125 -11.765625 Z M 10.125 -6.6875 "/></g></g></g><g fill="#4d433a" fill-opacity="1"><g transform="translate(166.686951, 302.362453)"><g><path d="M 17.4375 -6.296875 C 17.4375 -5.097656 17.273438 -4.09375 16.953125 -3.28125 C 16.640625 -2.476562 16.171875 -1.832031 15.546875 -1.34375 C 14.921875 -0.863281 14.144531 -0.519531 13.21875 -0.3125 C 12.289062 -0.101562 11.21875 0 10 0 L 2.25 0 C 2.132812 0 2.046875 0 1.984375 0 C 1.929688 -0.0078125 1.890625 -0.0234375 1.859375 -0.046875 C 1.828125 -0.078125 1.804688 -0.117188 1.796875 -0.171875 C 1.796875 -0.222656 1.796875 -0.296875 1.796875 -0.390625 L 1.796875 -12.140625 C 1.796875 -12.253906 1.796875 -12.335938 1.796875 -12.390625 C 1.804688 -12.441406 1.828125 -12.476562 1.859375 -12.5 C 1.890625 -12.53125 1.9375 -12.546875 2 -12.546875 C 2.0625 -12.546875 2.148438 -12.546875 2.265625 -12.546875 L 10 -12.546875 C 11.21875 -12.546875 12.289062 -12.441406 13.21875 -12.234375 C 14.144531 -12.023438 14.921875 -11.675781 15.546875 -11.1875 C 16.171875 -10.695312 16.640625 -10.050781 16.953125 -9.25 C 17.273438 -8.457031 17.4375 -7.472656 17.4375 -6.296875 Z M 16.46875 -6.296875 C 16.46875 -7.265625 16.359375 -8.097656 16.140625 -8.796875 C 15.929688 -9.492188 15.570312 -10.0625 15.0625 -10.5 C 14.5625 -10.945312 13.894531 -11.273438 13.0625 -11.484375 C 12.238281 -11.703125 11.21875 -11.8125 10 -11.8125 L 2.765625 -11.8125 L 2.765625 -0.75 L 10 -0.75 C 11.21875 -0.75 12.238281 -0.851562 13.0625 -1.0625 C 13.894531 -1.269531 14.5625 -1.597656 15.0625 -2.046875 C 15.570312 -2.492188 15.929688 -3.066406 16.140625 -3.765625 C 16.359375 -4.472656 16.46875 -5.316406 16.46875 -6.296875 Z M 16.46875 -6.296875 "/></g></g></g><g fill="#4d433a" fill-opacity="1"><g transform="translate(185.50383, 302.362453)"><g><path d="M 16.078125 -3.5 C 16.078125 -3.019531 15.988281 -2.59375 15.8125 -2.21875 C 15.644531 -1.851562 15.40625 -1.53125 15.09375 -1.25 C 14.789062 -0.976562 14.425781 -0.742188 14 -0.546875 C 13.570312 -0.359375 13.109375 -0.207031 12.609375 -0.09375 C 12.117188 0.0195312 11.59375 0.0976562 11.03125 0.140625 C 10.476562 0.191406 9.914062 0.21875 9.34375 0.21875 C 8.539062 0.21875 7.738281 0.175781 6.9375 0.09375 C 6.144531 0.0195312 5.398438 -0.078125 4.703125 -0.203125 C 4.015625 -0.328125 3.40625 -0.460938 2.875 -0.609375 C 2.34375 -0.753906 1.941406 -0.890625 1.671875 -1.015625 C 1.566406 -1.066406 1.488281 -1.128906 1.4375 -1.203125 C 1.394531 -1.285156 1.375 -1.367188 1.375 -1.453125 C 1.375 -1.546875 1.394531 -1.625 1.4375 -1.6875 C 1.488281 -1.75 1.566406 -1.78125 1.671875 -1.78125 C 1.710938 -1.78125 1.765625 -1.769531 1.828125 -1.75 C 2.117188 -1.625 2.535156 -1.488281 3.078125 -1.34375 C 3.628906 -1.207031 4.253906 -1.078125 4.953125 -0.953125 C 5.648438 -0.828125 6.390625 -0.722656 7.171875 -0.640625 C 7.953125 -0.554688 8.734375 -0.515625 9.515625 -0.515625 C 10.265625 -0.515625 10.976562 -0.5625 11.65625 -0.65625 C 12.332031 -0.757812 12.925781 -0.925781 13.4375 -1.15625 C 13.945312 -1.394531 14.351562 -1.703125 14.65625 -2.078125 C 14.96875 -2.460938 15.125 -2.9375 15.125 -3.5 C 15.125 -3.976562 14.992188 -4.367188 14.734375 -4.671875 C 14.472656 -4.972656 14.117188 -5.210938 13.671875 -5.390625 C 13.234375 -5.578125 12.71875 -5.71875 12.125 -5.8125 C 11.53125 -5.914062 10.898438 -5.988281 10.234375 -6.03125 C 9.566406 -6.082031 8.878906 -6.117188 8.171875 -6.140625 C 7.472656 -6.171875 6.789062 -6.210938 6.125 -6.265625 C 5.457031 -6.328125 4.828125 -6.414062 4.234375 -6.53125 C 3.640625 -6.644531 3.117188 -6.8125 2.671875 -7.03125 C 2.234375 -7.25 1.882812 -7.53125 1.625 -7.875 C 1.363281 -8.21875 1.234375 -8.65625 1.234375 -9.1875 C 1.234375 -9.664062 1.320312 -10.085938 1.5 -10.453125 C 1.6875 -10.828125 1.9375 -11.144531 2.25 -11.40625 C 2.570312 -11.675781 2.945312 -11.898438 3.375 -12.078125 C 3.800781 -12.253906 4.269531 -12.394531 4.78125 -12.5 C 5.289062 -12.601562 5.820312 -12.675781 6.375 -12.71875 C 6.9375 -12.769531 7.5 -12.796875 8.0625 -12.796875 C 8.757812 -12.796875 9.445312 -12.757812 10.125 -12.6875 C 10.800781 -12.625 11.4375 -12.535156 12.03125 -12.421875 C 12.625 -12.316406 13.15625 -12.195312 13.625 -12.0625 C 14.101562 -11.9375 14.484375 -11.804688 14.765625 -11.671875 C 14.828125 -11.640625 14.875 -11.59375 14.90625 -11.53125 C 14.9375 -11.476562 14.953125 -11.425781 14.953125 -11.375 C 14.953125 -11.269531 14.914062 -11.171875 14.84375 -11.078125 C 14.769531 -10.984375 14.671875 -10.9375 14.546875 -10.9375 C 14.472656 -10.9375 14.410156 -10.953125 14.359375 -10.984375 C 13.960938 -11.148438 13.519531 -11.296875 13.03125 -11.421875 C 12.550781 -11.554688 12.039062 -11.671875 11.5 -11.765625 C 10.957031 -11.859375 10.394531 -11.925781 9.8125 -11.96875 C 9.238281 -12.019531 8.671875 -12.046875 8.109375 -12.046875 C 7.328125 -12.046875 6.578125 -12 5.859375 -11.90625 C 5.148438 -11.820312 4.523438 -11.671875 3.984375 -11.453125 C 3.441406 -11.242188 3.007812 -10.957031 2.6875 -10.59375 C 2.363281 -10.238281 2.203125 -9.789062 2.203125 -9.25 C 2.203125 -8.832031 2.328125 -8.492188 2.578125 -8.234375 C 2.835938 -7.984375 3.1875 -7.773438 3.625 -7.609375 C 4.070312 -7.453125 4.59375 -7.332031 5.1875 -7.25 C 5.78125 -7.175781 6.410156 -7.117188 7.078125 -7.078125 C 7.742188 -7.035156 8.429688 -6.992188 9.140625 -6.953125 C 9.847656 -6.921875 10.53125 -6.863281 11.1875 -6.78125 C 11.851562 -6.707031 12.484375 -6.597656 13.078125 -6.453125 C 13.671875 -6.316406 14.1875 -6.125 14.625 -5.875 C 15.070312 -5.632812 15.425781 -5.316406 15.6875 -4.921875 C 15.945312 -4.535156 16.078125 -4.0625 16.078125 -3.5 Z M 16.078125 -3.5 "/></g></g></g><g fill="#4d433a" fill-opacity="1"><g transform="translate(202.855923, 302.362453)"><g><path d="M 16.078125 -3.5 C 16.078125 -3.019531 15.988281 -2.59375 15.8125 -2.21875 C 15.644531 -1.851562 15.40625 -1.53125 15.09375 -1.25 C 14.789062 -0.976562 14.425781 -0.742188 14 -0.546875 C 13.570312 -0.359375 13.109375 -0.207031 12.609375 -0.09375 C 12.117188 0.0195312 11.59375 0.0976562 11.03125 0.140625 C 10.476562 0.191406 9.914062 0.21875 9.34375 0.21875 C 8.539062 0.21875 7.738281 0.175781 6.9375 0.09375 C 6.144531 0.0195312 5.398438 -0.078125 4.703125 -0.203125 C 4.015625 -0.328125 3.40625 -0.460938 2.875 -0.609375 C 2.34375 -0.753906 1.941406 -0.890625 1.671875 -1.015625 C 1.566406 -1.066406 1.488281 -1.128906 1.4375 -1.203125 C 1.394531 -1.285156 1.375 -1.367188 1.375 -1.453125 C 1.375 -1.546875 1.394531 -1.625 1.4375 -1.6875 C 1.488281 -1.75 1.566406 -1.78125 1.671875 -1.78125 C 1.710938 -1.78125 1.765625 -1.769531 1.828125 -1.75 C 2.117188 -1.625 2.535156 -1.488281 3.078125 -1.34375 C 3.628906 -1.207031 4.253906 -1.078125 4.953125 -0.953125 C 5.648438 -0.828125 6.390625 -0.722656 7.171875 -0.640625 C 7.953125 -0.554688 8.734375 -0.515625 9.515625 -0.515625 C 10.265625 -0.515625 10.976562 -0.5625 11.65625 -0.65625 C 12.332031 -0.757812 12.925781 -0.925781 13.4375 -1.15625 C 13.945312 -1.394531 14.351562 -1.703125 14.65625 -2.078125 C 14.96875 -2.460938 15.125 -2.9375 15.125 -3.5 C 15.125 -3.976562 14.992188 -4.367188 14.734375 -4.671875 C 14.472656 -4.972656 14.117188 -5.210938 13.671875 -5.390625 C 13.234375 -5.578125 12.71875 -5.71875 12.125 -5.8125 C 11.53125 -5.914062 10.898438 -5.988281 10.234375 -6.03125 C 9.566406 -6.082031 8.878906 -6.117188 8.171875 -6.140625 C 7.472656 -6.171875 6.789062 -6.210938 6.125 -6.265625 C 5.457031 -6.328125 4.828125 -6.414062 4.234375 -6.53125 C 3.640625 -6.644531 3.117188 -6.8125 2.671875 -7.03125 C 2.234375 -7.25 1.882812 -7.53125 1.625 -7.875 C 1.363281 -8.21875 1.234375 -8.65625 1.234375 -9.1875 C 1.234375 -9.664062 1.320312 -10.085938 1.5 -10.453125 C 1.6875 -10.828125 1.9375 -11.144531 2.25 -11.40625 C 2.570312 -11.675781 2.945312 -11.898438 3.375 -12.078125 C 3.800781 -12.253906 4.269531 -12.394531 4.78125 -12.5 C 5.289062 -12.601562 5.820312 -12.675781 6.375 -12.71875 C 6.9375 -12.769531 7.5 -12.796875 8.0625 -12.796875 C 8.757812 -12.796875 9.445312 -12.757812 10.125 -12.6875 C 10.800781 -12.625 11.4375 -12.535156 12.03125 -12.421875 C 12.625 -12.316406 13.15625 -12.195312 13.625 -12.0625 C 14.101562 -11.9375 14.484375 -11.804688 14.765625 -11.671875 C 14.828125 -11.640625 14.875 -11.59375 14.90625 -11.53125 C 14.9375 -11.476562 14.953125 -11.425781 14.953125 -11.375 C 14.953125 -11.269531 14.914062 -11.171875 14.84375 -11.078125 C 14.769531 -10.984375 14.671875 -10.9375 14.546875 -10.9375 C 14.472656 -10.9375 14.410156 -10.953125 14.359375 -10.984375 C 13.960938 -11.148438 13.519531 -11.296875 13.03125 -11.421875 C 12.550781 -11.554688 12.039062 -11.671875 11.5 -11.765625 C 10.957031 -11.859375 10.394531 -11.925781 9.8125 -11.96875 C 9.238281 -12.019531 8.671875 -12.046875 8.109375 -12.046875 C 7.328125 -12.046875 6.578125 -12 5.859375 -11.90625 C 5.148438 -11.820312 4.523438 -11.671875 3.984375 -11.453125 C 3.441406 -11.242188 3.007812 -10.957031 2.6875 -10.59375 C 2.363281 -10.238281 2.203125 -9.789062 2.203125 -9.25 C 2.203125 -8.832031 2.328125 -8.492188 2.578125 -8.234375 C 2.835938 -7.984375 3.1875 -7.773438 3.625 -7.609375 C 4.070312 -7.453125 4.59375 -7.332031 5.1875 -7.25 C 5.78125 -7.175781 6.410156 -7.117188 7.078125 -7.078125 C 7.742188 -7.035156 8.429688 -6.992188 9.140625 -6.953125 C 9.847656 -6.921875 10.53125 -6.863281 11.1875 -6.78125 C 11.851562 -6.707031 12.484375 -6.597656 13.078125 -6.453125 C 13.671875 -6.316406 14.1875 -6.125 14.625 -5.875 C 15.070312 -5.632812 15.425781 -5.316406 15.6875 -4.921875 C 15.945312 -4.535156 16.078125 -4.0625 16.078125 -3.5 Z M 16.078125 -3.5 "/></g></g></g></svg>